<svg xmlns="http://www.w3.org/2000/svg" xmlns:xlink="http://www.w3.org/1999/xlink" fill="none" version="1.1" width="600.42"
     height="132" viewBox="300.4 0 426.42 132">

    <path d="M109.0,30.1A62,62,0,1,0,109.0,109.9L93.4,96.8A41.7,41.7,0,1,1,93.4,43.2L109.0,30.1Z"
          fill="#000000" fill-opacity="1" style="mix-blend-mode:passthrough"
          transform="translate(258, 0)"/>
    <!-- l + i -->
    <path d="M 120 41.72 L 120 130.38 L 140 130.38 L 140 41.72 Z M 160 41.72 L 160 130.38 L 180 130.38 L 180 41.72 Z m 0 -19.72 A 10 10 0 1 1 160 22.01 z"
          fill="#000000" fill-opacity="1" style="mix-blend-mode:passthrough"
          transform="translate(258, 0)"/>
    <path d="M641,41.724609375L667.559053,130.38404837500002L687.475433,130.38404837500002L704.375641,74.208614375L721.20536,130.38404837500002L741.12186,130.38404837500002L767.82172,41.724609375L748.31606,41.724609375L731.415924,98.113052375L714.527504,41.724609375L694.64629,41.724609375L677.76963,98.113052375L660.881132,41.724625945091L641,41.724609375Z"
          fill="#000000" fill-opacity="1" style="mix-blend-mode:passthrough"/>
    <path d="M587,132C612.405098,132,633,112.076668,633,87.5C633,62.923328,612.405098,43,587,43C561.594902,43,541,62.923328,541,87.5C541,112.076668,561.594902,132,587,132ZM587.00021,112.860184C601.478386,112.860184,613.215263,101.506027,613.215263,87.499966C613.215263,73.493906,601.478386,62.139751000000004,587.00021,62.139751000000004C572.522034,62.139751000000004,560.785156,73.493906,560.785156,87.499966C560.785156,101.506027,572.522034,112.860184,587.00021,112.860184Z"
          fill-rule="evenodd" fill="#000000" fill-opacity="1"/>
    <path d="M478,7L458,7L458,131L478,131L478,84L500.5,84C521.762962,84,541,66.762962,541,45.5C541,24.237036,521.762962,7,500.5,7L478,7ZM478,27L478,64L500.5,64C511.26955399999997,64,522,56.269554,522,45.5C522,34.730446,511.26955399999997,27,500.5,27L478,27Z"
          fill-rule="evenodd" fill="#000000" fill-opacity="1"/>
    <path d="M586.5629964,31.053010546875C587.6683826,32.129556546875,588.9830451,32.975797546875,590.5069752,33.591731546874996C592.0309057,34.207666546875004,593.683621,34.518310546875,595.46512,34.518310546875C597.246618,34.518310546875,598.942264,34.202308546875,600.460827,33.575664546875004C601.984756,32.943662546875004,603.304787,32.086711546875,604.42627,30.994098546875C605.547752,29.901483546875,606.422407,28.632125546875,607.05559,27.186019546875C607.688774,25.739912546875,608,24.181331546875,608,22.520989546875L608,22.435294546875C608,20.774949546875,607.683411,19.216369646875002,607.05559,17.770263646875C606.422407,16.318801846875,605.55312,15.060153946875001,604.447735,13.983608446875C603.342348,12.907063246875,602.027685,12.060823446875,600.503756,11.444889486875C598.979825,10.828955526875,597.327108,10.518310546875,595.54561,10.518310546875C593.764112,10.518310546875,592.0684671,10.834311456875,590.5445366,11.460957346875C589.0206065,12.092959146875,587.7005768,12.949910646875,586.5790935,14.042524146875C585.4576101,15.135137546875,584.5829562,16.399140846875,583.94977289,17.850603146875C583.31658959,19.296709046875,583,20.855290546875,583,22.515633546875L583,22.601328546875C583,24.267028546875,583.31658959,25.820253546875,583.94977289,27.271715546875C584.5829562,28.717822546875,585.4522431,29.981826546875,586.5576291,31.053016546875L586.5629964,31.053010546875Z"
          fill="#FF9D4D" fill-opacity="1" style="mix-blend-mode:passthrough"
          transform="matrix(0.9900480508804321,-0.14072978496551514,0.14072978496551514,0.9900480508804321,4.32174675524584,82.15014232628164)"/>
    <path d="M553.5622303,37.053012546874996C554.6673808,38.129558546875,555.9817591,38.975799546874995,557.5053644,39.591731546874996C559.0289698,40.207666546875004,560.68133,40.518310546875,562.462446,40.518310546875C564.243563,40.518310546875,565.938842,40.202308546875,567.457081,39.570306546875C568.980686,38.938304546875,570.300428,38.081354546875005,571.421673,36.988740546875C572.542919,35.896127546875,573.417383,34.632123546875,574.05043,33.180662546875C574.683477,31.734555546875,575.000002,30.175974546875,575.000002,28.515631546875L575.000002,28.429937546875C575.000002,26.769594546875,574.683477,25.216368646875,574.05043,23.764906846875C573.417383,22.313445546875002,572.548285,21.054797646875002,571.443132,19.983608246875C570.337982,18.907062746875,569.023603,18.060822946875,567.5,17.444889246875C565.976396,16.828955466875,564.324036,16.518310546875,562.542919,16.518310546875C560.761802,16.518310546875,559.0665245,16.834311546875,557.5429187,17.466313536875C556.0193133,18.098315446875,554.6995702,18.955267446875,553.5783262,20.047880146875C552.4570813,21.140493846875,551.5826178,22.409852946875,550.94957089,23.855959446874998C550.31652346,25.302065846875,550,26.860646546875,550,28.520989546875L550,28.606683546875C550,30.272384546875,550.31652346,31.825607546875,550.94957089,33.277070546874995C551.5826182,34.723176546874996,552.4517169,35.987180546874995,553.5568676,37.063726546875L553.5622303,37.053012546874996Z"
          fill="#FF9D4D" fill-opacity="1" style="mix-blend-mode:passthrough"
          transform="matrix(0.9900480508804321,-0.14072978496551514,0.14072978496551514,0.9900480508804321,3.1489537245070096,77.56577111713705)"/>
    <path d="M614.5583899,49.433383640624996C615.6640134,50.509929640625,616.9789543,51.356170640624995,618.5032206,51.972102640624996C620.0274782,52.588037640625004,621.68055,52.898681640625,623.462435,52.898681640625C625.24432,52.898681640625,626.940322,52.582679640625,628.459215,51.950677640625C629.983473,51.318675640625,631.303787,50.461725640625005,632.42551,49.369111640625C633.547235,48.276498640625,634.422077,47.012494640625,635.055393,45.561033640625C635.688707,44.114926640625,636.000002,42.556345640625,636.000002,40.896002640625L636.000002,40.810308640624996C636.000002,39.149965640625,635.683344,37.596739740625,635.055393,36.145277940625C634.422077,34.693816640625,633.552599,33.435168740625,632.446976,32.363979340625C631.341352,31.287433840625,630.026411,30.441194040625,628.502146,29.825260340625C626.977887,29.209326560625,625.324816,28.898681640625,623.548303,28.898681640625C621.77179,28.898681640625,620.0704165,29.214682640625,618.5461583,29.846684630625C617.0219007,30.478686540625,615.7015872,31.335638540625,614.5798628,32.428251240625C613.4581385,33.520864940625,612.5832964,34.790224040625,611.94997704,36.236330540625C611.31665766,37.682436940624996,611,39.241017640625,611,40.901360640625L611,40.987054640625004C611,42.652755640625,611.31665766,44.205978640625,611.94997704,45.657441640624995C612.5832964,47.103547640624996,613.45277,48.367551640624995,614.558394,49.444097640625L614.5583899,49.433383640624996Z"
          fill="#FF9D4D" fill-opacity="1" style="mix-blend-mode:passthrough"
          transform="matrix(0.8999722599983215,-0.4359472095966339,0.4359472095966339,0.8999722599983215,48.5186495187736,269.25441487708304)"/>
    <rect x="614" y="89" width="19" height="43" rx="0" fill="#000000" fill-opacity="1"/>
</svg>